<svg width="18" height="18" viewBox="0 0 18 18" fill="none" xmlns="http://www.w3.org/2000/svg">
<path d="M5.25 9H8.25V6H9V9H12V9.75H9V12.75H8.25V9.75H5.25V9ZM4.5 3H12.75C13.3467 3 13.919 3.23705 14.341 3.65901C14.7629 4.08097 15 4.65326 15 5.25V13.5C15 14.0967 14.7629 14.669 14.341 15.091C13.919 15.5129 13.3467 15.75 12.75 15.75H4.5C3.90326 15.75 3.33097 15.5129 2.90901 15.091C2.48705 14.669 2.25 14.0967 2.25 13.5V5.25C2.25 4.65326 2.48705 4.08097 2.90901 3.65901C3.33097 3.23705 3.90326 3 4.5 3ZM4.5 3.75C4.10218 3.75 3.72064 3.90804 3.43934 4.18934C3.15804 4.47064 3 4.85218 3 5.25V13.5C3 13.8978 3.15804 14.2794 3.43934 14.5607C3.72064 14.842 4.10218 15 4.5 15H12.75C13.1478 15 13.5294 14.842 13.8107 14.5607C14.092 14.2794 14.25 13.8978 14.25 13.5V5.25C14.25 4.85218 14.092 4.47064 13.8107 4.18934C13.5294 3.90804 13.1478 3.75 12.75 3.75H4.5Z" fill="#5C91F6"/>
</svg>
