<svg width="25" height="24" viewBox="0 0 25 24" fill="none" xmlns="http://www.w3.org/2000/svg">
<path d="M2.93203 10.276C2.94429 10.1303 2.96836 9.98581 3.00402 9.84399C2.90041 9.66959 2.81593 9.48452 2.75203 9.29199C2.63804 9.60778 2.5772 9.9403 2.57202 10.276C2.57544 10.6325 2.6404 10.9856 2.76403 11.32C2.82642 11.125 2.90676 10.9362 3.00402 10.756C2.96745 10.5981 2.94338 10.4376 2.93203 10.276Z" fill="black"/>
<path d="M3.15992 11.3079C3.09133 11.129 3.03911 10.9442 3.00391 10.7559C2.90665 10.936 2.82631 11.1248 2.76392 11.3199C2.82419 11.508 2.90465 11.6891 3.00391 11.8599C3.03757 11.6712 3.08983 11.4863 3.15992 11.3079Z" fill="black"/>
<path d="M3.5439 10.0126C3.37948 9.78322 3.24631 9.53303 3.1479 9.26855C3.07748 9.45424 3.02915 9.64757 3.00391 9.84455C3.09519 10.0098 3.19534 10.1701 3.30391 10.3246C3.37715 10.2155 3.45731 10.1113 3.5439 10.0126Z" fill="black"/>
<path d="M3.5442 10.0127C3.45761 10.1115 3.37745 10.2157 3.3042 10.3247C3.3762 10.4207 3.4602 10.5047 3.5442 10.6007L3.7722 10.2887L3.5442 10.0127Z" fill="black"/>
<path d="M21.592 14.728L12.76 19.936L4.80402 15.268C4.27187 14.9787 3.82133 14.5598 3.4941 14.0501C3.16688 13.5404 2.97355 12.9563 2.93203 12.352C2.94338 12.1904 2.96745 12.0299 3.00402 11.872C2.90476 11.7012 2.8243 11.5202 2.76403 11.332C2.64149 11.6584 2.57652 12.0035 2.57202 12.352C2.60792 13.0196 2.81429 13.6667 3.17142 14.2318C3.52854 14.7969 4.02451 15.2611 4.61202 15.58L12.676 20.308H12.832L22.024 14.896V14.584L20.512 13.72L20.152 13.936L21.592 14.728Z" fill="black"/>
<path d="M4.80391 13.2163C4.06257 12.782 3.48483 12.1157 3.15991 11.3203C3.08982 11.4987 3.03756 11.6836 3.00391 11.8723C3.39065 12.5487 3.94425 13.1147 4.6119 13.5163L12.6759 18.2563H12.8319L20.1519 13.9363L19.7919 13.7323L12.7359 17.8963L4.80391 13.2163Z" fill="black"/>
<path d="M22.036 12.5087L20.572 11.6807L20.212 11.8847L21.592 12.6767L20.176 13.5047L20.536 13.7207L22.048 12.8207L22.036 12.5087Z" fill="black"/>
<path d="M19.8162 13.7199L20.1762 13.9239L20.5362 13.7199L20.1762 13.5039L19.8162 13.7199Z" fill="black"/>
<path d="M12.76 15.8688L4.80395 11.2008C4.4156 10.9558 4.06748 10.6522 3.77195 10.3008L3.54395 10.6128C3.8559 10.9615 4.21544 11.2644 4.61194 11.5128L12.6759 16.2408H12.832L18.4119 12.9528L18.052 12.7488L12.76 15.8688Z" fill="black"/>
<path d="M2.932 8.27243C2.932 6.10043 5.43999 4.34843 8.51199 4.34843C9.66147 4.33637 10.7971 4.59971 11.824 5.11643L12.16 5.29643L21.568 10.6484L20.188 11.4644L20.548 11.6684L22.024 10.7924V10.5044L12.34 5.00843C12.2257 4.93086 12.1053 4.86264 11.98 4.80443C10.9005 4.26321 9.70746 3.98756 8.5 4.00043C5.224 4.00043 2.5 5.92043 2.5 8.28443C2.50614 8.63177 2.56687 8.97597 2.67999 9.30443C2.74638 9.10134 2.83072 8.90456 2.932 8.71643C2.91981 8.56868 2.91981 8.42018 2.932 8.27243Z" fill="black"/>
<path d="M18.436 12.5207L18.796 12.7247L20.212 11.8847L19.852 11.6807L18.436 12.5207Z" fill="black"/>
<path d="M18.4362 12.9405L18.7962 12.7245L18.4362 12.5205L18.0762 12.7365L18.4362 12.9405Z" fill="black"/>
<path d="M19.8521 11.6806L20.2121 11.8846L20.5721 11.6806L20.2121 11.4766L19.8521 11.6806Z" fill="black"/>
<path d="M3.14794 9.2681C3.07616 9.08699 3.02778 8.89746 3.00394 8.7041C2.90266 8.89224 2.81834 9.08901 2.75195 9.2921C2.81585 9.48463 2.90033 9.6697 3.00394 9.8441C3.02919 9.64712 3.07751 9.45379 3.14794 9.2681Z" fill="black"/>
<path d="M12.2799 9.18411L11.9319 8.98011C10.8809 8.44459 9.71536 8.17278 8.53588 8.18811C5.35588 8.18811 2.77588 10.0241 2.77588 12.2921C2.81237 12.9286 3.01131 13.5451 3.35372 14.0829C3.69613 14.6207 4.17061 15.0618 4.73188 15.3641L12.7839 20.0921L21.9759 14.6801L12.2799 9.18411Z" fill="white" stroke="black" stroke-linejoin="bevel"/>
<path d="M12.2799 7.1324L11.9319 6.9284C10.8738 6.38618 9.70087 6.10632 8.51194 6.1124C5.33194 6.1124 2.75195 7.9484 2.75195 10.2164C2.78442 10.857 2.98147 11.4785 3.32408 12.0208C3.6667 12.5631 4.14332 13.008 4.70794 13.3124L12.7599 18.0404L21.952 12.6284L12.2799 7.1324Z" fill="white" stroke="black" stroke-linejoin="bevel"/>
<path d="M12.2799 5.11673L11.9319 4.91273C10.8809 4.37721 9.71536 4.10539 8.53588 4.12073C5.35588 4.12073 2.77588 5.95673 2.77588 8.22473C2.81237 8.86122 3.01131 9.47775 3.35372 10.0155C3.69613 10.5533 4.17061 10.9944 4.73188 11.2967L12.7839 16.0247L21.8559 10.6847L21.9759 10.6127L12.2799 5.11673Z" fill="white" stroke="black" stroke-linejoin="bevel"/>
</svg>
