<svg width="24" height="25" viewBox="0 0 24 25" fill="none" xmlns="http://www.w3.org/2000/svg">
<path d="M2.54362 4.91403L3.25063 4.20703L20.0006 20.957L19.2936 21.664L15.9456 18.316C14.5786 18.89 13.0756 19.207 11.5006 19.207C9.33722 19.2078 7.21748 18.5982 5.3849 17.4484C3.55232 16.2986 2.08124 14.6553 1.14062 12.707C2.10626 10.7139 3.62457 9.04044 5.51463 7.88603L2.54362 4.91403ZM11.5006 18.207C12.7936 18.207 14.0316 17.973 15.1756 17.546L14.0466 16.418C13.1803 17.0124 12.1333 17.2848 11.0871 17.1882C10.0409 17.0916 9.06156 16.632 8.31872 15.889C7.57588 15.1461 7.11641 14.1666 7.01996 13.1204C6.9235 12.0742 7.19615 11.0273 7.79063 10.161L6.24463 8.61503C4.56714 9.58739 3.19006 11.0032 2.26462 12.707C3.16551 14.3711 4.49943 15.7607 6.12525 16.7289C7.75108 17.697 9.60836 18.2078 11.5006 18.207ZM20.7356 12.707C19.8348 11.0431 18.5011 9.65361 16.8754 8.68545C15.2498 7.71729 13.3927 7.20647 11.5006 7.20703C10.3777 7.20566 9.26182 7.38461 8.19562 7.73703L7.41263 6.95503C8.7184 6.45894 10.1038 6.20545 11.5006 6.20703C13.664 6.20631 15.7838 6.81585 17.6164 7.96563C19.4489 9.11541 20.92 10.7588 21.8606 12.707C20.9487 14.5896 19.5427 16.1892 17.7926 17.335L17.0686 16.611C18.6064 15.6467 19.8694 14.3021 20.7356 12.707ZM11.5006 8.20703C12.2897 8.20683 13.0649 8.4141 13.7485 8.80805C14.4322 9.202 15.0002 9.76878 15.3957 10.4515C15.7912 11.1343 16.0002 11.9091 16.0017 12.6981C16.0033 13.4871 15.7974 14.2627 15.4046 14.947L14.6646 14.207C14.9751 13.5543 15.0758 12.8214 14.953 12.1091C14.8302 11.3968 14.4899 10.74 13.9788 10.2289C13.4677 9.71777 12.8109 9.37744 12.0985 9.25463C11.3862 9.13183 10.6534 9.23258 10.0006 9.54303L9.26062 8.80303C9.94208 8.4113 10.7146 8.20575 11.5006 8.20703ZM8.00063 12.707C8.00047 13.3288 8.16595 13.9393 8.48003 14.4759C8.79411 15.0125 9.24546 15.4558 9.78765 15.7601C10.3298 16.0644 10.9433 16.2187 11.565 16.2073C12.1866 16.1959 12.794 16.0191 13.3246 15.695L8.51263 10.883C8.17675 11.4321 7.99954 12.0634 8.00063 12.707Z" fill="#7F8087"/>
</svg>
