<svg width="24" height="25" viewBox="0 0 24 25" fill="none" xmlns="http://www.w3.org/2000/svg">
<path d="M12 16.5C12.5304 16.5 13.0391 16.7107 13.4142 17.0858C13.7893 17.4609 14 17.9696 14 18.5C14 19.0304 13.7893 19.5391 13.4142 19.9142C13.0391 20.2893 12.5304 20.5 12 20.5C11.4696 20.5 10.9609 20.2893 10.5858 19.9142C10.2107 19.5391 10 19.0304 10 18.5C10 17.9696 10.2107 17.4609 10.5858 17.0858C10.9609 16.7107 11.4696 16.5 12 16.5ZM12 10.5C12.5304 10.5 13.0391 10.7107 13.4142 11.0858C13.7893 11.4609 14 11.9696 14 12.5C14 13.0304 13.7893 13.5391 13.4142 13.9142C13.0391 14.2893 12.5304 14.5 12 14.5C11.4696 14.5 10.9609 14.2893 10.5858 13.9142C10.2107 13.5391 10 13.0304 10 12.5C10 11.9696 10.2107 11.4609 10.5858 11.0858C10.9609 10.7107 11.4696 10.5 12 10.5ZM12 4.5C12.5304 4.5 13.0391 4.71071 13.4142 5.08579C13.7893 5.46086 14 5.96957 14 6.5C14 7.03043 13.7893 7.53914 13.4142 7.91421C13.0391 8.28929 12.5304 8.5 12 8.5C11.4696 8.5 10.9609 8.28929 10.5858 7.91421C10.2107 7.53914 10 7.03043 10 6.5C10 5.96957 10.2107 5.46086 10.5858 5.08579C10.9609 4.71071 11.4696 4.5 12 4.5ZM12 5.5C11.7348 5.5 11.4804 5.60536 11.2929 5.79289C11.1054 5.98043 11 6.23478 11 6.5C11 6.76522 11.1054 7.01957 11.2929 7.20711C11.4804 7.39464 11.7348 7.5 12 7.5C12.2652 7.5 12.5196 7.39464 12.7071 7.20711C12.8946 7.01957 13 6.76522 13 6.5C13 6.23478 12.8946 5.98043 12.7071 5.79289C12.5196 5.60536 12.2652 5.5 12 5.5ZM12 11.5C11.7348 11.5 11.4804 11.6054 11.2929 11.7929C11.1054 11.9804 11 12.2348 11 12.5C11 12.7652 11.1054 13.0196 11.2929 13.2071C11.4804 13.3946 11.7348 13.5 12 13.5C12.2652 13.5 12.5196 13.3946 12.7071 13.2071C12.8946 13.0196 13 12.7652 13 12.5C13 12.2348 12.8946 11.9804 12.7071 11.7929C12.5196 11.6054 12.2652 11.5 12 11.5ZM12 17.5C11.7348 17.5 11.4804 17.6054 11.2929 17.7929C11.1054 17.9804 11 18.2348 11 18.5C11 18.7652 11.1054 19.0196 11.2929 19.2071C11.4804 19.3946 11.7348 19.5 12 19.5C12.2652 19.5 12.5196 19.3946 12.7071 19.2071C12.8946 19.0196 13 18.7652 13 18.5C13 18.2348 12.8946 17.9804 12.7071 17.7929C12.5196 17.6054 12.2652 17.5 12 17.5Z" fill="#7F8087"/>
</svg>
