<svg width="18" height="18" viewBox="0 0 18 18" fill="none" xmlns="http://www.w3.org/2000/svg">
<path d="M3.75 3.75H6.75L9 6H13.5C14.0967 6 14.669 6.23705 15.091 6.65901C15.5129 7.08097 15.75 7.65326 15.75 8.25V12.75C15.75 13.3467 15.5129 13.919 15.091 14.341C14.669 14.7629 14.0967 15 13.5 15H3.75C3.15326 15 2.58097 14.7629 2.15901 14.341C1.73705 13.919 1.5 13.3467 1.5 12.75V6C1.5 5.40326 1.73705 4.83097 2.15901 4.40901C2.58097 3.98705 3.15326 3.75 3.75 3.75ZM3.75 4.5C3.35218 4.5 2.97064 4.65804 2.68934 4.93934C2.40804 5.22064 2.25 5.60218 2.25 6V12.75C2.25 13.1478 2.40804 13.5294 2.68934 13.8107C2.97064 14.092 3.35218 14.25 3.75 14.25H13.5C13.8978 14.25 14.2794 14.092 14.5607 13.8107C14.842 13.5294 15 13.1478 15 12.75V8.25C15 7.85218 14.842 7.47064 14.5607 7.18934C14.2794 6.90804 13.8978 6.75 13.5 6.75H8.6895L6.4395 4.5H3.75Z" fill="#616161"/>
</svg>
