<svg width="24" height="24" viewBox="0 0 24 24" fill="none" xmlns="http://www.w3.org/2000/svg">
<path d="M4.24397 12.252C3.81562 11.8235 3.48383 11.3084 3.27084 10.7412C3.05786 10.1741 2.9686 9.56789 3.00905 8.96338C3.04951 8.35888 3.21874 7.77001 3.50541 7.23626C3.79207 6.70251 4.18954 6.23622 4.67116 5.86866C5.15279 5.5011 5.70743 5.24075 6.2979 5.10509C6.88838 4.96943 7.50103 4.96158 8.09479 5.08207C8.68854 5.20256 9.24967 5.4486 9.74056 5.8037C10.2314 6.15881 10.6407 6.61476 10.941 7.14098H12.059C12.3592 6.61476 12.7685 6.15881 13.2594 5.8037C13.7503 5.4486 14.3114 5.20256 14.9052 5.08207C15.4989 4.96158 16.1116 4.96943 16.702 5.10509C17.2925 5.24075 17.8472 5.5011 18.3288 5.86866C18.8104 6.23622 19.2079 6.70251 19.4945 7.23626C19.7812 7.77001 19.9504 8.35888 19.9909 8.96338C20.0313 9.56789 19.9421 10.1741 19.7291 10.7412C19.5161 11.3084 19.1843 11.8235 18.756 12.252L11.5 19.51L4.24397 12.253V12.252ZM19.462 12.962C19.9741 12.4498 20.3747 11.8372 20.6386 11.1627C20.9025 10.4882 21.024 9.76635 20.9954 9.04261C20.9668 8.31888 20.7888 7.60888 20.4725 6.95729C20.1562 6.30569 19.7086 5.72659 19.1576 5.2564C18.6067 4.78621 17.9644 4.43511 17.2712 4.22518C16.578 4.01524 15.8488 3.95102 15.1296 4.03655C14.4104 4.12207 13.7166 4.3555 13.092 4.72214C12.4673 5.08878 11.9253 5.58071 11.5 6.16698C11.0747 5.58071 10.5326 5.08878 9.90799 4.72214C9.28334 4.3555 8.58958 4.12207 7.87035 4.03655C7.15111 3.95102 6.42196 4.01524 5.72875 4.22518C5.03554 4.43511 4.39327 4.78621 3.84233 5.2564C3.29139 5.72659 2.8437 6.30569 2.52742 6.95729C2.21114 7.60888 2.0331 8.31888 2.00452 9.04261C1.97593 9.76635 2.09741 10.4882 2.36131 11.1627C2.62522 11.8372 3.02584 12.4498 3.53797 12.962L11.5 20.923L19.462 12.963V12.962Z" fill="#616161"/>
</svg>
