<svg width="24" height="24" viewBox="0 0 24 24" fill="none" xmlns="http://www.w3.org/2000/svg">
<path fill-rule="evenodd" clip-rule="evenodd" d="M20.6387 11.1627C20.3748 11.8372 19.9742 12.4498 19.462 12.962V12.963L11.5 20.923L3.53803 12.962C3.0259 12.4498 2.62528 11.8372 2.36137 11.1627C2.09747 10.4882 1.97599 9.76637 2.00458 9.04263C2.03317 8.31889 2.2112 7.6089 2.52748 6.9573C2.84376 6.30571 3.29145 5.7266 3.84239 5.25642C4.39333 4.78623 5.0356 4.43513 5.72881 4.22519C6.42202 4.01526 7.15117 3.95104 7.87041 4.03656C8.58964 4.12209 9.2834 4.35551 9.90805 4.72215C10.5327 5.0888 11.0747 5.58072 11.5 6.167C11.9253 5.58072 12.4674 5.0888 13.092 4.72215C13.7167 4.35551 14.4104 4.12209 15.1297 4.03656C15.8489 3.95104 16.578 4.01526 17.2713 4.22519C17.9645 4.43513 18.6067 4.78623 19.1577 5.25642C19.7086 5.7266 20.1563 6.30571 20.4726 6.9573C20.7889 7.6089 20.9669 8.31889 20.9955 9.04263C21.0241 9.76637 20.9026 10.4882 20.6387 11.1627Z" fill="#424242"/>
</svg>
