<svg width="19" height="18" viewBox="0 0 19 18" fill="none" xmlns="http://www.w3.org/2000/svg">
<path d="M8.54603 11.2237C8.59141 11.2441 8.63228 11.2733 8.66628 11.3095C8.70028 11.3458 8.72672 11.3885 8.74407 11.4351C8.76141 11.4817 8.76931 11.5313 8.76731 11.581C8.76531 11.6307 8.75344 11.6795 8.7324 11.7246C8.71136 11.7696 8.68157 11.8101 8.64476 11.8435C8.60796 11.8769 8.56486 11.9027 8.518 11.9193C8.47113 11.936 8.42142 11.9431 8.37177 11.9403C8.32212 11.9376 8.27351 11.925 8.22878 11.9032V11.904C7.73697 11.6747 7.3077 11.3302 6.97736 10.8997C6.64702 10.4692 6.42535 9.96541 6.33114 9.43102C6.23694 8.89663 6.27297 8.3474 6.4362 7.8299C6.59942 7.31239 6.88502 6.84188 7.26878 6.45824L9.92078 3.80624C10.2342 3.49284 10.6062 3.24424 11.0157 3.07463C11.4252 2.90502 11.8641 2.81772 12.3073 2.81772C12.7505 2.81772 13.1894 2.90502 13.5988 3.07463C14.0083 3.24424 14.3804 3.49284 14.6938 3.80624C15.0072 4.11964 15.2558 4.4917 15.4254 4.90117C15.595 5.31065 15.6823 5.74953 15.6823 6.19274C15.6823 6.63595 15.595 7.07483 15.4254 7.4843C15.2558 7.89378 15.0072 8.26584 14.6938 8.57924L13.4683 9.80399L13.3558 8.85599L14.1635 8.04899C14.6558 7.55668 14.9324 6.88897 14.9324 6.19274C14.9324 5.49651 14.6558 4.8288 14.1635 4.33649C13.6712 3.84418 13.0035 3.56761 12.3073 3.56761C11.611 3.56761 10.9433 3.84418 10.451 4.33649L7.79903 6.98849C7.50045 7.28684 7.27822 7.6528 7.15118 8.05533C7.02415 8.45786 6.99606 8.88508 7.06929 9.30078C7.14252 9.71648 7.31492 10.1084 7.57186 10.4433C7.8288 10.7781 8.16271 11.0461 8.54528 11.2245V11.2237H8.54603ZM3.55628 14.9437C3.24288 14.6303 2.99427 14.2583 2.82466 13.8488C2.65505 13.4393 2.56775 13.0005 2.56775 12.5572C2.56775 12.114 2.65505 11.6751 2.82466 11.2657C2.99427 10.8562 3.24288 10.4841 3.55628 10.1707L4.78178 8.94599L4.89428 9.89399L4.08653 10.701C3.59422 11.1933 3.31764 11.861 3.31764 12.5572C3.31764 12.902 3.38555 13.2433 3.51747 13.5618C3.6494 13.8803 3.84276 14.1697 4.08653 14.4135C4.33029 14.6573 4.61969 14.8506 4.93818 14.9825C5.25668 15.1145 5.59804 15.1824 5.94278 15.1824C6.63901 15.1824 7.30672 14.9058 7.79903 14.4135L10.451 11.7615C10.7496 11.4631 10.9718 11.0972 11.0989 10.6946C11.2259 10.2921 11.254 9.8649 11.1808 9.4492C11.1075 9.0335 10.9351 8.6416 10.6782 8.30671C10.4213 7.97183 10.0873 7.70385 9.70478 7.52549V7.52624C9.65852 7.50652 9.61671 7.4777 9.58182 7.44149C9.54693 7.40528 9.51968 7.36242 9.50169 7.31547C9.48369 7.26851 9.47533 7.21842 9.47709 7.16817C9.47885 7.11792 9.49069 7.06853 9.51192 7.02295C9.53315 6.97737 9.56334 6.93652 9.60067 6.90284C9.63801 6.86916 9.68174 6.84333 9.72925 6.82689C9.77677 6.81045 9.82712 6.80374 9.87728 6.80715C9.92745 6.81056 9.97642 6.82402 10.0213 6.84674V6.84599C10.5131 7.07528 10.9424 7.41978 11.2727 7.85027C11.603 8.28076 11.8247 8.78456 11.9189 9.31896C12.0131 9.85335 11.9771 10.4026 11.8139 10.9201C11.6506 11.4376 11.365 11.9081 10.9813 12.2917L8.32928 14.9437C8.01588 15.2571 7.64382 15.5057 7.23434 15.6754C6.82487 15.845 6.38599 15.9323 5.94278 15.9323C5.49956 15.9323 5.06069 15.845 4.65121 15.6754C4.24174 15.5057 3.86968 15.2571 3.55628 14.9437Z" fill="#616161"/>
</svg>
