<svg width="24" height="24" viewBox="0 0 24 24" fill="none" xmlns="http://www.w3.org/2000/svg">
<path d="M15 11C14.2044 11 13.4413 10.6839 12.8787 10.1213C12.3161 9.55871 12 8.79565 12 8V4H8C7.46957 4 6.96086 4.21071 6.58579 4.58579C6.21071 4.96086 6 5.46957 6 6V19C6 19.5304 6.21071 20.0391 6.58579 20.4142C6.96086 20.7893 7.46957 21 8 21H17C17.5304 21 18.0391 20.7893 18.4142 20.4142C18.7893 20.0391 19 19.5304 19 19V11H15ZM13 8C13 8.53043 13.2107 9.03914 13.5858 9.41421C13.9609 9.78929 14.4696 10 15 10H18.586L13 4.414V8ZM8 3H13L20 10V19C20 19.7956 19.6839 20.5587 19.1213 21.1213C18.5587 21.6839 17.7956 22 17 22H8C7.20435 22 6.44129 21.6839 5.87868 21.1213C5.31607 20.5587 5 19.7956 5 19V6C5 5.20435 5.31607 4.44129 5.87868 3.87868C6.44129 3.31607 7.20435 3 8 3ZM8 24C6.67392 24 5.40215 23.4732 4.46447 22.5355C3.52678 21.5979 3 20.3261 3 19V7H4V19C4 20.0609 4.42143 21.0783 5.17157 21.8284C5.92172 22.5786 6.93913 23 8 23H16V24H8Z" fill="white"/>
</svg>
