<svg width="24" height="24" viewBox="0 0 24 24" fill="none" xmlns="http://www.w3.org/2000/svg">
<path d="M17 12C16.2044 12 15.4413 11.6839 14.8787 11.1213C14.3161 10.5587 14 9.79565 14 9V5H6C5.46957 5 4.96086 5.21071 4.58579 5.58579C4.21071 5.96086 4 6.46957 4 7V18C4 18.5304 4.21071 19.0391 4.58579 19.4142C4.96086 19.7893 5.46957 20 6 20H19C19.5304 20 20.0391 19.7893 20.4142 19.4142C20.7893 19.0391 21 18.5304 21 18V12H17ZM15 9C15 9.53043 15.2107 10.0391 15.5858 10.4142C15.9609 10.7893 16.4696 11 17 11H20.586L15 5.414V9ZM6 4H15L22 11V18C22 18.7956 21.6839 19.5587 21.1213 20.1213C20.5587 20.6839 19.7956 21 19 21H6C5.20435 21 4.44129 20.6839 3.87868 20.1213C3.31607 19.5587 3 18.7956 3 18V7C3 6.20435 3.31607 5.44129 3.87868 4.87868C4.44129 4.31607 5.20435 4 6 4ZM6 23C5.34339 23 4.69321 22.8707 4.08658 22.6194C3.47995 22.3681 2.92876 21.9998 2.46447 21.5355C2.00017 21.0712 1.63188 20.52 1.3806 19.9134C1.12933 19.3068 1 18.6566 1 18V8H2V18C2 19.0609 2.42143 20.0783 3.17157 20.8284C3.92172 21.5786 4.93913 22 6 22H18V23H6Z" fill="white"/>
</svg>
