<svg width="24" height="24" viewBox="0 0 24 24" fill="none" xmlns="http://www.w3.org/2000/svg">
<path d="M20.9361 17.5V18.5H7.65947V17.5H20.9361ZM4.085 17C4.35586 17 4.61562 17.1054 4.80715 17.2929C4.99868 17.4804 5.10627 17.7348 5.10627 18C5.10627 18.2652 4.99868 18.5196 4.80715 18.7071C4.61562 18.8946 4.35586 19 4.085 19C3.81414 19 3.55437 18.8946 3.36285 18.7071C3.17132 18.5196 3.06372 18.2652 3.06372 18C3.06372 17.7348 3.17132 17.4804 3.36285 17.2929C3.55437 17.1054 3.81414 17 4.085 17ZM20.9361 11.5V12.5H7.65947V11.5H20.9361ZM4.085 11C4.35586 11 4.61562 11.1054 4.80715 11.2929C4.99868 11.4804 5.10627 11.7348 5.10627 12C5.10627 12.2652 4.99868 12.5196 4.80715 12.7071C4.61562 12.8946 4.35586 13 4.085 13C3.81414 13 3.55437 12.8946 3.36285 12.7071C3.17132 12.5196 3.06372 12.2652 3.06372 12C3.06372 11.7348 3.17132 11.4804 3.36285 11.2929C3.55437 11.1054 3.81414 11 4.085 11ZM20.9361 5.5V6.5H7.65947V5.5H20.9361ZM4.085 5C4.35586 5 4.61562 5.10536 4.80715 5.29289C4.99868 5.48043 5.10627 5.73478 5.10627 6C5.10627 6.26522 4.99868 6.51957 4.80715 6.70711C4.61562 6.89464 4.35586 7 4.085 7C3.81414 7 3.55437 6.89464 3.36285 6.70711C3.17132 6.51957 3.06372 6.26522 3.06372 6C3.06372 5.73478 3.17132 5.48043 3.36285 5.29289C3.55437 5.10536 3.81414 5 4.085 5Z" fill="#7F8087"/>
</svg>
