<svg width="36" height="36" viewBox="0 0 36 36" fill="none" xmlns="http://www.w3.org/2000/svg">
<path d="M17.675 13.8053C17.525 13.7114 17.3698 13.6262 17.21 13.5502C15.8146 12.848 14.2721 12.4881 12.71 12.5003C8.45 12.5003 5 14.9603 5 17.9903C5.04972 18.8408 5.31549 19.6646 5.77218 20.3837C6.22887 21.1029 6.8614 21.6937 7.61 22.1003L18.395 28.4303L30.68 21.1703L17.675 13.8053Z" fill="#FFFEFC" stroke="black" stroke-linecap="round" stroke-linejoin="round"/>
<path d="M17.675 10.0699C17.525 9.97608 17.3698 9.89087 17.21 9.81487C15.8146 9.11264 14.2721 8.75279 12.71 8.76495C8.45 8.76495 5 11.225 5 14.255C5.04972 15.1055 5.31549 15.9292 5.77218 16.6484C6.22887 17.3675 6.8614 17.9583 7.61 18.365L18.395 24.6949L30.68 17.435L17.675 10.0699Z" fill="#FFFEFC" stroke="black" stroke-linecap="round" stroke-linejoin="round"/>
<path d="M17.3895 19.445C27.8895 13.97 27.5295 8 27.5295 8L27.2595 8.24005C24.7571 10.4403 21.9476 12.2645 18.9194 13.655H18.8145C18.8212 13.7499 18.8212 13.8451 18.8145 13.9399C19.0208 14.6607 19.0521 15.4203 18.9057 16.1555C18.7594 16.8908 18.4397 17.5805 17.9732 18.1673C17.5067 18.7541 16.9068 19.2211 16.2235 19.5294C15.5402 19.8377 14.7931 19.9784 14.0445 19.9399C10.9825 19.9256 8.02385 18.8315 5.68945 16.85C5.68945 16.85 12.0045 22.25 17.3895 19.445Z" fill="#FFFEFC" stroke="black" stroke-linecap="round" stroke-linejoin="round"/>
</svg>
