<svg width="24" height="25" viewBox="0 0 24 25" fill="none" xmlns="http://www.w3.org/2000/svg">
<path d="M11.5006 18.207C15.4896 18.207 18.9586 15.983 20.7356 12.707C19.8348 11.0431 18.5011 9.65361 16.8754 8.68545C15.2498 7.71729 13.3927 7.20647 11.5006 7.20703C9.60853 7.20647 7.75146 7.71729 6.12582 8.68545C4.50019 9.65361 3.16643 11.0431 2.26563 12.707C3.16643 14.3709 4.50019 15.7604 6.12582 16.7286C7.75146 17.6968 9.60853 18.2076 11.5006 18.207ZM11.5006 6.20703C13.664 6.20631 15.7838 6.81585 17.6164 7.96563C19.4489 9.11541 20.92 10.7588 21.8606 12.707C20.92 14.6553 19.4489 16.2987 17.6164 17.4484C15.7838 18.5982 13.664 19.2078 11.5006 19.207C9.33722 19.2078 7.21748 18.5982 5.3849 17.4484C3.55232 16.2987 2.08124 14.6553 1.14062 12.707C2.08124 10.7588 3.55232 9.11541 5.3849 7.96563C7.21748 6.81585 9.33722 6.20631 11.5006 6.20703ZM11.5006 8.20703C12.6941 8.20703 13.8387 8.68114 14.6826 9.52505C15.5265 10.369 16.0006 11.5136 16.0006 12.707C16.0006 13.9005 15.5265 15.0451 14.6826 15.889C13.8387 16.7329 12.6941 17.207 11.5006 17.207C10.3072 17.207 9.16256 16.7329 8.31865 15.889C7.47473 15.0451 7.00063 13.9005 7.00063 12.707C7.00063 11.5136 7.47473 10.369 8.31865 9.52505C9.16256 8.68114 10.3072 8.20703 11.5006 8.20703ZM11.5006 9.20703C10.5724 9.20703 9.68213 9.57578 9.02575 10.2322C8.36937 10.8885 8.00063 11.7788 8.00063 12.707C8.00063 13.6353 8.36937 14.5255 9.02575 15.1819C9.68213 15.8383 10.5724 16.207 11.5006 16.207C12.4289 16.207 13.3191 15.8383 13.9755 15.1819C14.6319 14.5255 15.0006 13.6353 15.0006 12.707C15.0006 11.7788 14.6319 10.8885 13.9755 10.2322C13.3191 9.57578 12.4289 9.20703 11.5006 9.20703Z" fill="#7F8087"/>
</svg>
