<svg width="24" height="24" viewBox="0 0 24 24" fill="none" xmlns="http://www.w3.org/2000/svg">
<path d="M19.705 8.04198L17.373 10.374L13.623 6.62398L15.955 4.29198C16.0478 4.19903 16.158 4.1253 16.2794 4.07499C16.4007 4.02468 16.5307 3.99878 16.662 3.99878C16.7934 3.99878 16.9234 4.02468 17.0447 4.07499C17.1661 4.1253 17.2763 4.19903 17.369 4.29198L19.705 6.62798C19.798 6.72077 19.8717 6.83097 19.922 6.95229C19.9724 7.0736 19.9982 7.20365 19.9982 7.33498C19.9982 7.46631 19.9724 7.59636 19.922 7.71767C19.8717 7.83899 19.798 7.94919 19.705 8.04198ZM2.99805 17.248L13.063 7.18398L16.813 10.934L6.74805 20.998H2.99905V17.248H2.99805ZM16.62 5.04398L15.08 6.58298L17.417 8.91798L18.955 7.37898L16.62 5.04398ZM15.356 10.979L13.021 8.64298L3.99905 17.664V20H6.33505L15.356 10.979Z" fill="#616161"/>
</svg>
