<svg width="24" height="24" viewBox="0 0 24 24" fill="none" xmlns="http://www.w3.org/2000/svg">
<path d="M19.5878 15.4924L17.7738 14.2024C18.0784 13.0821 18.0767 11.9007 17.7688 10.7814L19.5888 9.50735L18.1358 6.99335L16.1118 7.91935C15.2937 7.09538 14.2694 6.50619 13.1458 6.21335L12.9528 4.00035H10.0468L9.85379 6.21335C8.73044 6.5066 7.70644 7.09613 6.88879 7.92035L4.86379 6.99435L3.41179 9.50835L5.23179 10.7824C4.92371 11.9013 4.92164 13.0824 5.22579 14.2024L3.41179 15.4924L4.86379 17.9944L6.88879 17.0674C7.70656 17.8912 8.73054 18.4804 9.85379 18.7734L10.0468 20.9864H12.9528L13.1458 18.7734C14.269 18.4803 15.293 17.8912 16.1108 17.0674L18.1358 17.9944L19.5888 15.4934L19.5878 15.4924ZM13.5048 2.98535C13.6335 2.98522 13.7573 3.03473 13.8505 3.12358C13.9436 3.21243 13.9989 3.33377 14.0048 3.46235L14.1828 5.49735C14.922 5.77906 15.6116 6.17671 16.2258 6.67535L18.0758 5.81235C18.19 5.75356 18.3226 5.74102 18.4458 5.77733C18.5691 5.81364 18.6736 5.89601 18.7378 6.00735L20.7428 9.47735C20.8072 9.58858 20.8263 9.72035 20.7962 9.84529C20.766 9.97024 20.6889 10.0788 20.5808 10.1484L18.9068 11.3204C19.0348 12.1184 19.0308 12.9134 18.9078 13.6794L20.5808 14.8494C20.6891 14.919 20.7664 15.0277 20.7966 15.1528C20.8268 15.278 20.8075 15.41 20.7428 15.5214L18.7378 18.9784C18.6736 19.0897 18.5691 19.1721 18.4458 19.2084C18.3226 19.2447 18.19 19.2321 18.0758 19.1734L16.2258 18.3104C15.6238 18.8004 14.9378 19.2004 14.1828 19.4894L14.0048 21.5244C13.9986 21.6528 13.9432 21.7739 13.8501 21.8625C13.757 21.9511 13.6333 22.0005 13.5048 22.0004H9.49479C9.36623 22.0005 9.24256 21.9511 9.14946 21.8625C9.05635 21.7739 9.00096 21.6528 8.99479 21.5244L8.81679 19.4894C8.07752 19.2073 7.38789 18.8093 6.77379 18.3104L4.92379 19.1734C4.80954 19.2325 4.67688 19.2454 4.5534 19.2093C4.42991 19.1731 4.32511 19.0908 4.26079 18.9794L2.25679 15.5204C2.19236 15.4091 2.17325 15.2774 2.20342 15.1524C2.23359 15.0275 2.31071 14.9189 2.41879 14.8494L4.09179 13.6784C3.9665 12.897 3.9665 12.1007 4.09179 11.3194L2.41979 10.1484C2.31198 10.0788 2.23503 9.97044 2.20488 9.84573C2.17473 9.72102 2.19367 9.58949 2.25779 9.47835L4.25979 6.00735C4.32395 5.89575 4.42868 5.8132 4.55218 5.77687C4.67567 5.74055 4.80842 5.75326 4.92279 5.81235L6.77279 6.67535C7.38692 6.17671 8.07656 5.77906 8.81579 5.49735L8.99379 3.46235C8.99971 3.33377 9.05499 3.21243 9.14812 3.12358C9.24126 3.03473 9.36507 2.98522 9.49379 2.98535H13.5038H13.5048ZM11.4998 9.00035C12.428 9.00035 13.3183 9.3691 13.9747 10.0255C14.631 10.6819 14.9998 11.5721 14.9998 12.5004C14.9998 13.4286 14.631 14.3188 13.9747 14.9752C13.3183 15.6316 12.428 16.0004 11.4998 16.0004C10.5715 16.0004 9.68129 15.6316 9.02491 14.9752C8.36854 14.3188 7.99979 13.4286 7.99979 12.5004C7.99979 11.5721 8.36854 10.6819 9.02491 10.0255C9.68129 9.3691 10.5715 9.00035 11.4998 9.00035ZM11.4998 10.0004C10.8367 10.0004 10.2009 10.2637 9.73202 10.7326C9.26318 11.2014 8.99979 11.8373 8.99979 12.5004C8.99979 13.1634 9.26318 13.7993 9.73202 14.2681C10.2009 14.737 10.8367 15.0004 11.4998 15.0004C12.1628 15.0004 12.7987 14.737 13.2676 14.2681C13.7364 13.7993 13.9998 13.1634 13.9998 12.5004C13.9998 11.8373 13.7364 11.2014 13.2676 10.7326C12.7987 10.2637 12.1628 10.0004 11.4998 10.0004Z" fill="black"/>
</svg>
