<svg width="18" height="18" viewBox="0 0 18 18" fill="none" xmlns="http://www.w3.org/2000/svg">
<g clip-path="url(#clip0_1410_6015)">
<path d="M5.97334 11.4963L8.09466 9.375L5.97334 7.25368L6.50367 6.72335L8.62499 8.84467L10.7463 6.72335L11.2766 7.25368L9.15532 9.375L11.2766 11.4963L10.7463 12.0267L8.62499 9.90533L6.50367 12.0267L5.97334 11.4963ZM3.58686 4.33686C4.92305 3.00067 6.73532 2.25 8.62499 2.25C10.5147 2.25 12.3269 3.00067 13.6631 4.33686C14.9993 5.67306 15.75 7.48533 15.75 9.375C15.75 11.2647 14.9993 13.0769 13.6631 14.4131C12.3269 15.7493 10.5147 16.5 8.62499 16.5C6.73532 16.5 4.92305 15.7493 3.58686 14.4131C2.25066 13.0769 1.49999 11.2647 1.49999 9.375C1.49999 7.48533 2.25066 5.67306 3.58686 4.33686ZM4.11719 4.86719C2.92164 6.06274 2.24999 7.68424 2.24999 9.375C2.24999 11.0658 2.92164 12.6873 4.11719 13.8828C5.31273 15.0783 6.93424 15.75 8.62499 15.75C10.3157 15.75 11.9373 15.0783 13.1328 13.8828C14.3283 12.6873 15 11.0658 15 9.375C15 7.68424 14.3283 6.06274 13.1328 4.86719C11.9373 3.67165 10.3157 3 8.62499 3C6.93424 3 5.31273 3.67165 4.11719 4.86719Z" fill="#5C91F6"/>
</g>
<defs>
<clipPath id="clip0_1410_6015">
<rect width="18" height="18" fill="white"/>
</clipPath>
</defs>
</svg>
