<svg width="63" height="48" viewBox="0 0 63 48" fill="none" xmlns="http://www.w3.org/2000/svg">
<path d="M31.3977 11.8278C31.0285 11.61 30.6593 11.3996 30.2901 11.2002L30.2385 11.167C26.8797 9.47844 23.1661 8.6165 19.4069 8.65297C9.23993 8.65297 1 14.5154 1 21.7512C1 25.6644 3.41438 29.1716 7.23532 31.5749L32.9777 46.6814L62.3306 29.3672L31.3977 11.8278Z" fill="white" stroke="#7A84DC" stroke-width="0.64236" stroke-linecap="round" stroke-linejoin="round"/>
<path d="M31.3977 5.24904C31.0285 5.02754 30.6593 4.81713 30.2901 4.61777L30.2385 4.58823C26.8797 2.89964 23.1661 2.03771 19.4069 2.07417C9.23993 2.07417 1 7.94031 1 15.1724C1 19.0856 3.41438 22.5965 7.23532 24.9961L32.9777 40.0989L62.3085 22.8143L31.3977 5.24904Z" fill="white" stroke="#7A84DC" stroke-width="0.64236" stroke-linecap="round" stroke-linejoin="round"/>
<path d="M54.722 18.4915L41.8231 11.4957L35.4845 25.336L24.8117 30.2681L12.9391 28.3521C34.3732 39.7965 54.722 18.4915 54.722 18.4915Z" fill="#7A84DC"/>
<path d="M31.6634 28.3188C56.7302 15.2427 55.8811 1 55.8811 1L55.224 1.5833C49.2616 6.84755 42.5538 11.2016 35.3182 14.5043L35.0745 14.6151C35.141 14.8477 35.2001 15.0802 35.2517 15.3054C37.1493 23.1282 31.9292 29.622 23.8665 29.6847C11.909 29.777 3.93115 22.3013 3.93115 22.3013C3.93115 22.3013 18.8051 35.0266 31.6634 28.3188Z" fill="white" stroke="#7A84DC" stroke-width="0.5353" stroke-linecap="round" stroke-linejoin="round"/>
</svg>
