<svg width="63" height="48" viewBox="0 0 63 48" fill="none" xmlns="http://www.w3.org/2000/svg">
<path d="M31.3977 12.1281C31.0285 11.9066 30.6593 11.6961 30.2901 11.4967L30.2385 11.4672C26.8797 9.77863 23.1661 8.91668 19.4069 8.95314C9.23993 8.95314 1 14.8193 1 22.0514C1 25.9646 3.41438 29.4755 7.23532 31.8751L32.9556 47.0001L62.3085 29.6896L31.3977 12.1281Z" fill="white" stroke="#7A84DC" stroke-width="0.64236" stroke-linecap="round" stroke-linejoin="round"/>
<path d="M31.3977 5.54573C31.0285 5.32792 30.6593 5.11751 30.2901 4.91446L30.2385 4.88494C26.8788 3.19925 23.1656 2.33866 19.4069 2.37455C9.23993 2.37455 1 8.23701 1 15.4728C1 19.386 3.41438 22.8932 7.23532 25.2928L32.9777 40.3956L62.3306 23.0851L31.3977 5.54573Z" fill="white" stroke="#7A84DC" stroke-width="0.64236" stroke-linecap="round" stroke-linejoin="round"/>
<path d="M31.3977 4.17599C31.0285 3.95817 30.6593 3.74776 30.2901 3.54471L30.2385 3.51515C26.8797 1.82656 23.1661 0.964649 19.4069 1.00111C9.23993 1.00111 1 6.86356 1 14.0993C1 18.0126 3.41438 21.5197 7.23532 23.9193L32.9777 39.0222L62.3306 21.7117L31.3977 4.17599Z" fill="white" stroke="#7A84DC" stroke-width="0.64236" stroke-linecap="round" stroke-linejoin="round"/>
</svg>
