<svg width="64" height="48" viewBox="0 0 64 48" fill="none" xmlns="http://www.w3.org/2000/svg">
<path d="M31.7577 11.8425C31.3885 11.6247 31.0193 11.4143 30.6501 11.2149L30.5984 11.1817C27.2396 9.49311 23.5261 8.63115 19.7669 8.66761C9.59991 8.66761 1.35999 14.5301 1.35999 21.7659C1.35999 25.6791 3.77437 29.1862 7.5953 31.5895L33.3377 46.6961L62.6906 29.3819L31.7577 11.8425Z" fill="white" stroke="#7A84DC" stroke-width="0.64236" stroke-linecap="round" stroke-linejoin="round"/>
<path d="M56.1969 25.716L42.5929 18.1849L40.8836 28.1008L30.2108 33.033L18.3345 31.1281C39.7724 42.5761 56.1969 25.7197 56.1969 25.716Z" fill="#7A84DC"/>
<path d="M30.7831 4.70648L42.1056 11.2113C42.1056 11.2113 50.5006 6.45268 56.2449 1C56.2449 1 55.957 6.19793 52.1471 11.9903C52.1471 11.9903 59.3681 7.03228 62.0003 4.28195C62.0003 4.28195 62.6833 14.5412 49.3857 24.616C49.3857 24.616 46.9787 26.4618 43.7189 28.4775C40.5404 30.4405 37.0061 31.7577 33.3181 32.3538C29.6301 32.9498 25.8608 32.8131 22.2257 31.9514C18.0312 30.9799 14.035 29.2941 10.4122 26.9676C10.4122 26.9676 1.79938 22.3234 1.44497 16.5459C1.44497 16.5459 -0.423041 9.19932 9.96178 4.09367C9.96917 4.09367 19.7338 -0.794186 30.7831 4.70648Z" fill="white" stroke="#7A84DC" stroke-width="0.64236" stroke-linecap="round" stroke-linejoin="round"/>
<path d="M42.1056 11.2113C42.1056 11.2113 37.8786 13.7032 35.4383 14.6077C35.4383 14.6077 37.406 20.8836 33.8546 25.1365C29.2805 30.6372 22.0669 32.9445 7.4292 25.011" stroke="#7A84DC" stroke-width="0.64236" stroke-linecap="round" stroke-linejoin="round"/>
<path d="M52.147 11.9901C48.6355 14.2251 44.9732 16.2136 41.1863 17.9412C41.1863 17.9412 41.2564 18.159 41.3524 18.5393C42.0147 21.2891 41.5891 24.1885 40.1644 26.632C38.7397 29.0754 36.4262 30.874 33.7068 31.6522C30.1886 32.6601 24.7802 33.1548 17.7697 30.6186" stroke="#7A84DC" stroke-width="0.64236" stroke-linecap="round" stroke-linejoin="round"/>
<path d="M10.8477 26.7535C10.8477 26.7535 19.8629 31.5158 27.431 29.9542C27.6377 29.9099 27.8407 29.8619 28.0512 29.8213C28.8781 29.6589 33.0904 28.7138 41.489 22.4379" stroke="#7A84DC" stroke-width="0.64236" stroke-linecap="round" stroke-linejoin="round"/>
</svg>
 