<svg width="98" height="42" viewBox="0 0 98 42" fill="none" xmlns="http://www.w3.org/2000/svg">
<path d="M86.0238 16.3555H49.8945V41.2741H86.0238C92.4405 41.2741 97.6416 35.6946 97.6416 28.8134C97.6416 21.9322 92.4405 16.3555 86.0238 16.3555Z" fill="#7A84DC"/>
<path d="M86.0238 41.6325H49.539V16H86.0238C92.6269 16 98 21.7487 98 28.8163C98 35.8839 92.6269 41.6325 86.0238 41.6325ZM50.2529 40.9186H86.0238C92.2341 40.9186 97.2832 35.4911 97.2832 28.8163C97.2832 22.1415 92.2312 16.7139 86.0238 16.7139H50.2529V40.9186Z" fill="white"/>
<path d="M57.4152 16.3555H21.2859V41.2741H57.4152C63.8319 41.2741 69.0329 35.6946 69.0329 28.8134C69.0329 21.9322 63.8319 16.3555 57.4152 16.3555Z" fill="#7A84DC"/>
<path d="M57.4152 41.6325H20.9275V16H57.4152C64.0183 16 69.3913 21.7487 69.3913 28.8163C69.3913 35.8839 64.0183 41.6325 57.4152 41.6325ZM21.6443 40.9186H57.4152C63.6226 40.9186 68.6745 35.4911 68.6745 28.8163C68.6745 22.1415 63.6226 16.7139 57.4152 16.7139H21.6443V40.9186Z" fill="white"/>
<path d="M44.6361 20.4041C39.9684 20.4041 36.1866 23.9135 36.1866 28.2429C36.1866 32.5723 39.9712 36.0818 44.6361 36.0818C49.3039 36.0818 53.0857 32.5723 53.0857 28.2429C53.0857 23.9135 49.3039 20.4041 44.6361 20.4041ZM44.6361 34.9148C40.7941 34.9148 37.6775 31.9272 37.6775 28.2429C37.6775 24.5586 40.7941 21.571 44.6361 21.571C48.4782 21.571 51.5948 24.5586 51.5948 28.2429C51.5948 31.9272 48.4782 34.9148 44.6361 34.9148Z" fill="white"/>
<path d="M62.0428 26.4509H57.484V19.4349H56.0733V26.4509V27.2967V38.255H57.484V27.2967H62.0428V26.4509Z" fill="white"/>
<path d="M90.8178 26.4823H86.2619V19.4664H84.8483V26.4823V27.3282V38.2865H86.2619V27.3282H90.8178V26.4823Z" fill="white"/>
<path d="M81.1869 21.115H80.0802H69.4831V22.2217H80.0802V25.6251C80.0773 26.1612 80.0315 26.6687 79.9569 27.1475H69.0387V28.2543H79.7103C77.8496 34.7742 69.4545 35.3075 69.4545 35.3075L69.2251 36.4601C74.624 35.9469 77.2618 33.613 77.2618 33.613C80.668 31.0239 81.0378 27.3912 81.0378 27.3912C81.1497 26.8407 81.184 25.6251 81.184 25.6251V22.2217V21.115H81.1869Z" fill="white"/>
<path d="M28.1356 16.3555H0.332581V41.2741H28.1356C34.5523 41.2741 39.7534 35.6946 39.7534 28.8134C39.7534 21.9322 34.5495 16.3555 28.1356 16.3555Z" fill="#7A84DC"/>
<path d="M27.4991 20.8799H26.3235H10.058H8.88251V31.9902H27.284H27.4962V20.8799H27.4991ZM26.3264 21.9351V30.9351H10.058V21.9351H26.3264Z" fill="white"/>
<path d="M30.4723 35.6516H18.8631V31.5458H17.5213V35.6516H5.91211V36.7096H17.5213V36.7125H18.8631V36.7096H30.4723V35.6516Z" fill="white"/>
<path d="M28.0753 41.6325H0V16H28.0753C34.6784 16 40.0515 21.7487 40.0515 28.8163C40.0487 35.8839 34.6784 41.6325 28.0753 41.6325ZM0.713924 40.9186H28.0753C34.2856 40.9186 39.3347 35.4911 39.3347 28.8163C39.3347 22.1415 34.2828 16.7139 28.0753 16.7139H0.713924V40.9186Z" fill="white"/>
<path d="M21.5467 6.59627V4.58786H18.8811V0.339661H24.8965V4.58786H22.2383V6.59627H25.7851V7.18206H18V6.59627H21.5467ZM19.5555 3.9996H24.2222V0.92545H19.5555V3.9996Z" fill="#7A84DC"/>
<path d="M29.9348 7.92786V5.17367H26.3881V4.58788H34.1731V5.17367H30.6264V7.92786H29.9348ZM33.4618 3.50245H27.2692V0.268311H33.2846V0.854092H27.9436V2.90682H33.4618V3.50245Z" fill="#7A84DC"/>
<path d="M34.946 6.64796V6.04248L41.0082 5.9711V6.55689L34.946 6.64796ZM40.2328 2.43669C40.2328 3.60088 39.2557 4.67646 37.8331 4.67646C36.4105 4.67646 35.4333 3.60088 35.4333 2.43669C35.4333 1.2725 36.4105 0.196908 37.8331 0.196908C39.2557 0.196908 40.2328 1.2725 40.2328 2.43669ZM39.5585 2.43669C39.5585 1.58262 38.8816 0.782697 37.8331 0.782697C36.7846 0.782697 36.1102 1.58262 36.1102 2.43669C36.1102 3.29076 36.7846 4.09068 37.8331 4.09068C38.8816 4.08822 39.5585 3.2883 39.5585 2.43669ZM41.3601 7.92783V0H42.037V7.92783H41.3601Z" fill="#7A84DC"/>
<path d="M51.1339 3.05939C51.1339 4.66662 50.0411 5.75205 48.6185 5.75205C47.1958 5.75205 46.103 4.66908 46.103 3.05939C46.103 1.45955 47.1958 0.374122 48.6185 0.374122C50.0411 0.374122 51.1339 1.45955 51.1339 3.05939ZM46.7971 3.04955C46.7971 4.30235 47.5084 5.14657 48.6185 5.14657C49.7285 5.14657 50.4398 4.30235 50.4398 3.04955C50.4398 1.76967 49.6768 0.979598 48.6185 0.979598C47.5626 0.979598 46.7971 1.76967 46.7971 3.04955ZM52.1652 7.92783V0H52.8396V2.8428H54.1293V3.44581H52.8396V7.92537H52.1652V7.92783Z" fill="#7A84DC"/>
<path d="M54.9637 0.33966H59.0347C59.079 3.39659 57.5506 5.51084 55.1336 6.7218L54.6635 6.25169C55.8104 5.72744 56.6989 4.98904 57.302 4.09313C57.4718 3.8347 57.6219 3.56888 57.7548 3.29321L54.8234 3.38182V2.79603L57.9862 2.71727L58.0133 2.61882C58.1831 2.08472 58.2889 1.52601 58.3234 0.930376H54.9637V0.33966ZM60.4647 7.92783V0H61.1391V3.18984H62.4288V3.79286H61.1391V7.92537H60.4647V7.92783Z" fill="#7A84DC"/>
<path d="M68.0873 3.05939C68.0873 4.66662 66.9945 5.75205 65.5719 5.75205C64.1493 5.75205 63.0565 4.66908 63.0565 3.05939C63.0565 1.45955 64.1493 0.374122 65.5719 0.374122C66.9945 0.374122 68.0873 1.45955 68.0873 3.05939ZM63.7505 3.04955C63.7505 4.30235 64.4619 5.14657 65.5719 5.14657C66.6819 5.14657 67.3933 4.30235 67.3933 3.04955C67.3933 1.76967 66.6303 0.979598 65.5719 0.979598C64.5135 0.979598 63.7505 1.76967 63.7505 3.04955ZM69.3844 7.92783V0H70.0588V7.92783H69.3844Z" fill="#7A84DC"/>
<path d="M79.0253 6.5077V7.09349H71.2402V6.5077H79.0253ZM78.1368 0.251099V4.85371H72.1214V0.251099H72.7958V1.9297H77.4624V0.251099H78.1368ZM77.4599 4.26793V2.51795H72.7933V4.26793H77.4599Z" fill="#7A84DC"/>
</svg>
